<svg xmlns="http://www.w3.org/2000/svg" viewBox="0 0 42.7 42.7" width="32" height="32"><path d="M4 2.7c-.7 0-1.3.6-1.3 1.3v14.7c0 .7.6 1.3 1.3 1.3h34.7c.7 0 1.3-.6 1.3-1.3V4c0-.7-.6-1.3-1.3-1.3H4zm17.3 2.6c1.4 0 2.7 1 2.7 2.4 0 1-.1 2.3-.7 3l-.6.5c-.2.5-.3.9-.1 1.3 1 .4 2.2.8 3.2 1.4.7.5.7.3.9 2 .1 1.3-3.1 1.4-5.4 1.4-2.2 0-5.4 0-5.3-1.4.2-1.7.1-1.5.9-2 1-.5 2-1 3.2-1.4.1-.4 0-.8-.1-1.3-.2-.2-.4-.2-.6-.5-.6-1-.7-1.8-.7-3 0-1.1 1-2.4 2.6-2.4zM2.7 29.3v4h16v-4zM2.7 40h24v-4h-24zM2.7 22.7v4H36v-4z"/></svg>